# xmcd
#
# Track frame offsets:
#	150
#	25680
#	56378
#	92483
#	130522
#	177068
#	211671
#
# Disc length: 3107 seconds
#
# Revision: 0
# Processed by: cddbd v1.5.2PL0 Copyright (c) Steve Scherf et al.
# Submitted via: audiograbber 1.83.01
#
DISCID=460c2107
DTITLE=Grateful Dead - 94-10-17 Madison Square Garden, New York NY
DYEAR=1900
DGENRE=
TTITLE0=In The Midnight Hour
TTITLE1=Peggy-O
TTITLE2=New Minglewood Blues
TTITLE3=Tennessee Jed
TTITLE4=Eternity
TTITLE5=Friend Of The Devil
TTITLE6=Promised Land
EXTD=
EXTT0=
EXTT1=
EXTT2=
EXTT3=
EXTT4=
EXTT5=
EXTT6=
PLAYORDER=
